<svg width="38.750061" height="38.750122" viewBox="0 0 38.7501 38.7501" fill="none" xmlns="http://www.w3.org/2000/svg" xmlns:xlink="http://www.w3.org/1999/xlink">
	<desc>
			Created with Pixso.
	</desc>
	<defs/>
	<path id="Vector" d="M34.56 25.56C33.23 28.2 31.2 30.43 28.68 31.99C26.17 33.54 23.27 34.37 20.31 34.37C17.83 34.38 15.39 33.8 13.18 32.68L2.5 36.25L6.06 25.56C4.94 23.35 4.36 20.91 4.37 18.43C4.37 15.47 5.2 12.57 6.75 10.06C8.31 7.54 10.54 5.51 13.18 4.18C15.39 3.07 17.83 2.49 20.31 2.5L21.25 2.5C25.15 2.71 28.84 4.36 31.61 7.13C34.38 9.9 36.03 13.59 36.25 17.5L36.25 18.43C36.25 20.91 35.67 23.35 34.56 25.56Z" stroke="#FFFFFF" stroke-opacity="1.000000" stroke-width="5.000000" stroke-linejoin="round"/>
</svg>
