<svg width="44.193359" height="39.184692" viewBox="0 0 44.1934 39.1847" fill="none" xmlns="http://www.w3.org/2000/svg" xmlns:xlink="http://www.w3.org/1999/xlink">
	<desc>
			Created with Pixso.
	</desc>
	<defs/>
	<path id="Vector" d="M35.32 3.28C34.07 2.76 32.73 2.5 31.37 2.5C30.02 2.5 28.68 2.76 27.42 3.28C26.17 3.8 25.04 4.56 24.08 5.52L22.09 7.5L20.1 5.52C18.17 3.58 15.55 2.5 12.81 2.5C10.07 2.5 7.45 3.58 5.52 5.52C3.58 7.45 2.5 10.08 2.5 12.81C2.5 15.55 3.58 18.17 5.52 20.1L7.5 22.09L22.09 36.68L36.68 22.09L38.67 20.1C39.62 19.15 40.38 18.01 40.9 16.76C41.42 15.51 41.69 14.17 41.69 12.81C41.69 11.46 41.42 10.11 40.9 8.86C40.38 7.61 39.62 6.47 38.67 5.52C37.71 4.56 36.57 3.8 35.32 3.28Z" stroke="#FFFFFF" stroke-opacity="1.000000" stroke-width="5.000000" stroke-linejoin="round"/>
</svg>
